<mxfile host="app.diagrams.net" agent="Mozilla/5.0 (Windows NT 10.0; Win64; x64) AppleWebKit/537.36 (KHTML, like Gecko) Chrome/131.0.0.0 Safari/537.36" version="25.0.1">
  <diagram name="Page-1" id="P1my68UJJ8T772jOW7gJ">
    <mxGraphModel dx="1195" dy="615" grid="1" gridSize="10" guides="1" tooltips="1" connect="1" arrows="1" fold="1" page="1" pageScale="1" pageWidth="850" pageHeight="1100" math="0" shadow="0">
      <root>
        <mxCell id="0" />
        <mxCell id="1" parent="0" />
        <mxCell id="D_zrvM-TTAZoHFAwsAbm-45" value="&lt;font style=&quot;font-size: 14px;&quot;&gt;Logic model&lt;/font&gt;" style="text;html=1;align=center;verticalAlign=middle;whiteSpace=wrap;rounded=0;glass=0;fillColor=#2D4296;" parent="1" vertex="1">
          <mxGeometry x="285" y="60" width="140" height="30" as="geometry" />
        </mxCell>
        <mxCell id="wsXtch0gVwjq-yxDfHyX-1" value="" style="group" vertex="1" connectable="0" parent="1">
          <mxGeometry x="50" y="100" width="610" height="440" as="geometry" />
        </mxCell>
        <mxCell id="D_zrvM-TTAZoHFAwsAbm-9" style="edgeStyle=orthogonalEdgeStyle;rounded=0;orthogonalLoop=1;jettySize=auto;html=1;entryX=0;entryY=0.5;entryDx=0;entryDy=0;startArrow=ERone;startFill=0;endArrow=ERzeroToMany;endFill=0;" parent="wsXtch0gVwjq-yxDfHyX-1" source="D_zrvM-TTAZoHFAwsAbm-1" target="D_zrvM-TTAZoHFAwsAbm-4" edge="1">
          <mxGeometry relative="1" as="geometry" />
        </mxCell>
        <mxCell id="D_zrvM-TTAZoHFAwsAbm-10" style="edgeStyle=orthogonalEdgeStyle;rounded=0;orthogonalLoop=1;jettySize=auto;html=1;entryX=0.5;entryY=0;entryDx=0;entryDy=0;startArrow=ERone;startFill=0;endArrow=ERzeroToMany;endFill=0;" parent="wsXtch0gVwjq-yxDfHyX-1" source="D_zrvM-TTAZoHFAwsAbm-1" target="D_zrvM-TTAZoHFAwsAbm-8" edge="1">
          <mxGeometry relative="1" as="geometry" />
        </mxCell>
        <mxCell id="D_zrvM-TTAZoHFAwsAbm-14" style="edgeStyle=orthogonalEdgeStyle;rounded=0;orthogonalLoop=1;jettySize=auto;html=1;exitX=0.75;exitY=1;exitDx=0;exitDy=0;entryX=0;entryY=0.5;entryDx=0;entryDy=0;startArrow=ERone;startFill=0;endArrow=ERzeroToMany;endFill=0;" parent="wsXtch0gVwjq-yxDfHyX-1" source="D_zrvM-TTAZoHFAwsAbm-1" target="D_zrvM-TTAZoHFAwsAbm-5" edge="1">
          <mxGeometry relative="1" as="geometry" />
        </mxCell>
        <mxCell id="D_zrvM-TTAZoHFAwsAbm-1" value="User" style="swimlane;whiteSpace=wrap;html=1;" parent="wsXtch0gVwjq-yxDfHyX-1" vertex="1">
          <mxGeometry width="122" height="125.71428571428572" as="geometry" />
        </mxCell>
        <mxCell id="D_zrvM-TTAZoHFAwsAbm-29" value="" style="group" parent="D_zrvM-TTAZoHFAwsAbm-1" vertex="1" connectable="0">
          <mxGeometry y="16.761904761904763" width="93.53333333333333" height="75.42857142857143" as="geometry" />
        </mxCell>
        <mxCell id="D_zrvM-TTAZoHFAwsAbm-16" value="UserID" style="text;html=1;align=center;verticalAlign=middle;resizable=0;points=[];autosize=1;strokeColor=none;fillColor=none;" parent="D_zrvM-TTAZoHFAwsAbm-29" vertex="1">
          <mxGeometry x="28.46666666666667" width="60" height="30" as="geometry" />
        </mxCell>
        <mxCell id="D_zrvM-TTAZoHFAwsAbm-17" value="Name&lt;span style=&quot;color: rgba(0, 0, 0, 0); font-family: monospace; font-size: 0px; text-align: start;&quot;&gt;%3CmxGraphModel%3E%3Croot%3E%3CmxCell%20id%3D%220%22%2F%3E%3CmxCell%20id%3D%221%22%20parent%3D%220%22%2F%3E%3CmxCell%20id%3D%222%22%20value%3D%22UserId%22%20style%3D%22text%3Bhtml%3D1%3Balign%3Dcenter%3BverticalAlign%3Dmiddle%3Bresizable%3D0%3Bpoints%3D%5B%5D%3Bautosize%3D1%3BstrokeColor%3Dnone%3BfillColor%3Dnone%3B%22%20vertex%3D%221%22%20parent%3D%221%22%3E%3CmxGeometry%20x%3D%2260%22%20y%3D%22130%22%20width%3D%2260%22%20height%3D%2230%22%20as%3D%22geometry%22%2F%3E%3C%2FmxCell%3E%3C%2Froot%3E%3C%2FmxGraphModel%3E&lt;/span&gt;&lt;span style=&quot;color: rgba(0, 0, 0, 0); font-family: monospace; font-size: 0px; text-align: start;&quot;&gt;%3CmxGraphModel%3E%3Croot%3E%3CmxCell%20id%3D%220%22%2F%3E%3CmxCell%20id%3D%221%22%20parent%3D%220%22%2F%3E%3CmxCell%20id%3D%222%22%20value%3D%22UserId%22%20style%3D%22text%3Bhtml%3D1%3Balign%3Dcenter%3BverticalAlign%3Dmiddle%3Bresizable%3D0%3Bpoints%3D%5B%5D%3Bautosize%3D1%3BstrokeColor%3Dnone%3BfillColor%3Dnone%3B%22%20vertex%3D%221%22%20parent%3D%221%22%3E%3CmxGeometry%20x%3D%2260%22%20y%3D%22130%22%20width%3D%2260%22%20height%3D%2230%22%20as%3D%22geometry%22%2F%3E%3C%2FmxCell%3E%3C%2Froot%3E%3C%2FmxGraphModel%3E&lt;/span&gt;" style="text;html=1;align=center;verticalAlign=middle;resizable=0;points=[];autosize=1;strokeColor=none;fillColor=none;" parent="D_zrvM-TTAZoHFAwsAbm-29" vertex="1">
          <mxGeometry x="28.46666666666667" y="16.761904761904763" width="60" height="30" as="geometry" />
        </mxCell>
        <mxCell id="D_zrvM-TTAZoHFAwsAbm-18" value="Email" style="text;html=1;align=center;verticalAlign=middle;resizable=0;points=[];autosize=1;strokeColor=none;fillColor=none;" parent="D_zrvM-TTAZoHFAwsAbm-29" vertex="1">
          <mxGeometry x="32.53333333333333" y="33.523809523809526" width="50" height="30" as="geometry" />
        </mxCell>
        <mxCell id="D_zrvM-TTAZoHFAwsAbm-19" value="Password" style="text;html=1;align=center;verticalAlign=middle;resizable=0;points=[];autosize=1;strokeColor=none;fillColor=none;" parent="D_zrvM-TTAZoHFAwsAbm-29" vertex="1">
          <mxGeometry x="28.46666666666667" y="50.285714285714285" width="80" height="30" as="geometry" />
        </mxCell>
        <mxCell id="D_zrvM-TTAZoHFAwsAbm-21" value="PK" style="text;html=1;align=center;verticalAlign=middle;resizable=0;points=[];autosize=1;strokeColor=none;fillColor=none;" parent="D_zrvM-TTAZoHFAwsAbm-29" vertex="1">
          <mxGeometry width="40" height="30" as="geometry" />
        </mxCell>
        <mxCell id="D_zrvM-TTAZoHFAwsAbm-12" style="edgeStyle=orthogonalEdgeStyle;rounded=0;orthogonalLoop=1;jettySize=auto;html=1;exitX=0.25;exitY=1;exitDx=0;exitDy=0;entryX=0.5;entryY=0;entryDx=0;entryDy=0;startArrow=ERoneToMany;startFill=0;endArrow=ERoneToMany;endFill=0;" parent="wsXtch0gVwjq-yxDfHyX-1" source="D_zrvM-TTAZoHFAwsAbm-4" target="D_zrvM-TTAZoHFAwsAbm-5" edge="1">
          <mxGeometry relative="1" as="geometry" />
        </mxCell>
        <mxCell id="D_zrvM-TTAZoHFAwsAbm-15" style="edgeStyle=orthogonalEdgeStyle;rounded=0;orthogonalLoop=1;jettySize=auto;html=1;exitX=0.75;exitY=1;exitDx=0;exitDy=0;entryX=1;entryY=0.5;entryDx=0;entryDy=0;startArrow=ERone;startFill=0;endArrow=ERzeroToOne;endFill=0;" parent="wsXtch0gVwjq-yxDfHyX-1" source="D_zrvM-TTAZoHFAwsAbm-4" target="D_zrvM-TTAZoHFAwsAbm-8" edge="1">
          <mxGeometry relative="1" as="geometry" />
        </mxCell>
        <mxCell id="D_zrvM-TTAZoHFAwsAbm-4" value="Order" style="swimlane;whiteSpace=wrap;html=1;startSize=23;" parent="wsXtch0gVwjq-yxDfHyX-1" vertex="1">
          <mxGeometry x="488" width="122" height="125.71428571428572" as="geometry" />
        </mxCell>
        <mxCell id="D_zrvM-TTAZoHFAwsAbm-33" value="" style="group" parent="D_zrvM-TTAZoHFAwsAbm-4" vertex="1" connectable="0">
          <mxGeometry y="16.761904761904763" width="92.72" height="92.19047619047619" as="geometry" />
        </mxCell>
        <mxCell id="D_zrvM-TTAZoHFAwsAbm-31" value="PK" style="text;html=1;align=center;verticalAlign=middle;resizable=0;points=[];autosize=1;strokeColor=none;fillColor=none;" parent="D_zrvM-TTAZoHFAwsAbm-33" vertex="1">
          <mxGeometry width="40" height="30" as="geometry" />
        </mxCell>
        <mxCell id="D_zrvM-TTAZoHFAwsAbm-30" value="OrderID&lt;span style=&quot;color: rgba(0, 0, 0, 0); font-family: monospace; font-size: 0px; text-align: start;&quot;&gt;%3CmxGraphModel%3E%3Croot%3E%3CmxCell%20id%3D%220%22%2F%3E%3CmxCell%20id%3D%221%22%20parent%3D%220%22%2F%3E%3CmxCell%20id%3D%222%22%20value%3D%22UserId%22%20style%3D%22text%3Bhtml%3D1%3Balign%3Dcenter%3BverticalAlign%3Dmiddle%3Bresizable%3D0%3Bpoints%3D%5B%5D%3Bautosize%3D1%3BstrokeColor%3Dnone%3BfillColor%3Dnone%3B%22%20vertex%3D%221%22%20parent%3D%221%22%3E%3CmxGeometry%20x%3D%2260%22%20y%3D%22130%22%20width%3D%2260%22%20height%3D%2230%22%20as%3D%22geometry%22%2F%3E%3C%2FmxCell%3E%3C%2Froot%3E%3C%2FmxGraphModel%3E&lt;/span&gt;" style="text;html=1;align=center;verticalAlign=middle;resizable=0;points=[];autosize=1;strokeColor=none;fillColor=none;" parent="D_zrvM-TTAZoHFAwsAbm-33" vertex="1">
          <mxGeometry x="26.026666666666667" width="70" height="30" as="geometry" />
        </mxCell>
        <mxCell id="D_zrvM-TTAZoHFAwsAbm-23" value="UserID" style="text;html=1;align=center;verticalAlign=middle;resizable=0;points=[];autosize=1;strokeColor=none;fillColor=none;" parent="D_zrvM-TTAZoHFAwsAbm-33" vertex="1">
          <mxGeometry x="27.653333333333332" y="16.761904761904763" width="60" height="30" as="geometry" />
        </mxCell>
        <mxCell id="D_zrvM-TTAZoHFAwsAbm-24" value="ListingID" style="text;html=1;align=center;verticalAlign=middle;resizable=0;points=[];autosize=1;strokeColor=none;fillColor=none;" parent="D_zrvM-TTAZoHFAwsAbm-33" vertex="1">
          <mxGeometry x="27.653333333333332" y="33.523809523809526" width="70" height="30" as="geometry" />
        </mxCell>
        <mxCell id="D_zrvM-TTAZoHFAwsAbm-25" value="TotalPrice" style="text;html=1;align=center;verticalAlign=middle;resizable=0;points=[];autosize=1;strokeColor=none;fillColor=none;" parent="D_zrvM-TTAZoHFAwsAbm-33" vertex="1">
          <mxGeometry x="25.213333333333335" y="50.285714285714285" width="80" height="30" as="geometry" />
        </mxCell>
        <mxCell id="D_zrvM-TTAZoHFAwsAbm-26" value="OrderDate" style="text;html=1;align=center;verticalAlign=middle;resizable=0;points=[];autosize=1;strokeColor=none;fillColor=none;" parent="D_zrvM-TTAZoHFAwsAbm-33" vertex="1">
          <mxGeometry x="27.653333333333332" y="67.88571428571429" width="80" height="30" as="geometry" />
        </mxCell>
        <mxCell id="D_zrvM-TTAZoHFAwsAbm-27" value="FK" style="text;html=1;align=center;verticalAlign=middle;resizable=0;points=[];autosize=1;strokeColor=none;fillColor=none;" parent="D_zrvM-TTAZoHFAwsAbm-33" vertex="1">
          <mxGeometry y="16.761904761904763" width="40" height="30" as="geometry" />
        </mxCell>
        <mxCell id="D_zrvM-TTAZoHFAwsAbm-32" value="FK" style="text;html=1;align=center;verticalAlign=middle;resizable=0;points=[];autosize=1;strokeColor=none;fillColor=none;" parent="D_zrvM-TTAZoHFAwsAbm-33" vertex="1">
          <mxGeometry y="33.523809523809526" width="40" height="30" as="geometry" />
        </mxCell>
        <mxCell id="D_zrvM-TTAZoHFAwsAbm-13" style="edgeStyle=orthogonalEdgeStyle;rounded=0;orthogonalLoop=1;jettySize=auto;html=1;entryX=0;entryY=0.5;entryDx=0;entryDy=0;startArrow=ERoneToMany;startFill=0;endArrow=ERone;endFill=0;" parent="wsXtch0gVwjq-yxDfHyX-1" source="D_zrvM-TTAZoHFAwsAbm-5" target="D_zrvM-TTAZoHFAwsAbm-7" edge="1">
          <mxGeometry relative="1" as="geometry" />
        </mxCell>
        <mxCell id="D_zrvM-TTAZoHFAwsAbm-5" value="Listing" style="swimlane;whiteSpace=wrap;html=1;" parent="wsXtch0gVwjq-yxDfHyX-1" vertex="1">
          <mxGeometry x="121.99666666666666" y="167.61904761904762" width="122" height="125.71428571428572" as="geometry" />
        </mxCell>
        <mxCell id="D_zrvM-TTAZoHFAwsAbm-34" value="" style="group" parent="D_zrvM-TTAZoHFAwsAbm-5" vertex="1" connectable="0">
          <mxGeometry y="16.761904761904763" width="93.53333333333333" height="92.19047619047619" as="geometry" />
        </mxCell>
        <mxCell id="D_zrvM-TTAZoHFAwsAbm-35" value="ListingID" style="text;html=1;align=center;verticalAlign=middle;resizable=0;points=[];autosize=1;strokeColor=none;fillColor=none;" parent="D_zrvM-TTAZoHFAwsAbm-34" vertex="1">
          <mxGeometry x="24.400000000000002" width="70" height="30" as="geometry" />
        </mxCell>
        <mxCell id="D_zrvM-TTAZoHFAwsAbm-36" value="UserID" style="text;html=1;align=center;verticalAlign=middle;resizable=0;points=[];autosize=1;strokeColor=none;fillColor=none;" parent="D_zrvM-TTAZoHFAwsAbm-34" vertex="1">
          <mxGeometry x="25.213333333333335" y="16.761904761904763" width="60" height="30" as="geometry" />
        </mxCell>
        <mxCell id="D_zrvM-TTAZoHFAwsAbm-37" value="Title" style="text;html=1;align=center;verticalAlign=middle;resizable=0;points=[];autosize=1;strokeColor=none;fillColor=none;" parent="D_zrvM-TTAZoHFAwsAbm-34" vertex="1">
          <mxGeometry x="22.773333333333333" y="33.523809523809526" width="50" height="30" as="geometry" />
        </mxCell>
        <mxCell id="D_zrvM-TTAZoHFAwsAbm-39" value="PK" style="text;html=1;align=center;verticalAlign=middle;resizable=0;points=[];autosize=1;strokeColor=none;fillColor=none;" parent="D_zrvM-TTAZoHFAwsAbm-34" vertex="1">
          <mxGeometry width="40" height="30" as="geometry" />
        </mxCell>
        <mxCell id="D_zrvM-TTAZoHFAwsAbm-55" value="Price&lt;span style=&quot;color: rgba(0, 0, 0, 0); font-family: monospace; font-size: 0px; text-align: start;&quot;&gt;%3CmxGraphModel%3E%3Croot%3E%3CmxCell%20id%3D%220%22%2F%3E%3CmxCell%20id%3D%221%22%20parent%3D%220%22%2F%3E%3CmxCell%20id%3D%222%22%20value%3D%22Title%22%20style%3D%22text%3Bhtml%3D1%3Balign%3Dcenter%3BverticalAlign%3Dmiddle%3Bresizable%3D0%3Bpoints%3D%5B%5D%3Bautosize%3D1%3BstrokeColor%3Dnone%3BfillColor%3Dnone%3B%22%20vertex%3D%221%22%20parent%3D%221%22%3E%3CmxGeometry%20x%3D%2298%22%20y%3D%22555%22%20width%3D%2250%22%20height%3D%2230%22%20as%3D%22geometry%22%2F%3E%3C%2FmxCell%3E%3C%2Froot%3E%3C%2FmxGraphModel%3E&lt;/span&gt;" style="text;html=1;align=center;verticalAlign=middle;resizable=0;points=[];autosize=1;strokeColor=none;fillColor=none;" parent="D_zrvM-TTAZoHFAwsAbm-34" vertex="1">
          <mxGeometry x="25.213333333333335" y="50.285714285714285" width="50" height="30" as="geometry" />
        </mxCell>
        <mxCell id="D_zrvM-TTAZoHFAwsAbm-56" value="Quantity" style="text;html=1;align=center;verticalAlign=middle;resizable=0;points=[];autosize=1;strokeColor=none;fillColor=none;" parent="D_zrvM-TTAZoHFAwsAbm-34" vertex="1">
          <mxGeometry x="23.586666666666666" y="67.04761904761905" width="70" height="30" as="geometry" />
        </mxCell>
        <mxCell id="D_zrvM-TTAZoHFAwsAbm-57" value="FK" style="text;html=1;align=center;verticalAlign=middle;resizable=0;points=[];autosize=1;strokeColor=none;fillColor=none;" parent="D_zrvM-TTAZoHFAwsAbm-34" vertex="1">
          <mxGeometry y="16.761904761904763" width="40" height="30" as="geometry" />
        </mxCell>
        <mxCell id="D_zrvM-TTAZoHFAwsAbm-7" value="Category" style="swimlane;whiteSpace=wrap;html=1;" parent="wsXtch0gVwjq-yxDfHyX-1" vertex="1">
          <mxGeometry x="365.99666666666667" y="167.61904761904762" width="122" height="125.71428571428572" as="geometry">
            <mxRectangle x="460" y="300" width="90" height="30" as="alternateBounds" />
          </mxGeometry>
        </mxCell>
        <mxCell id="D_zrvM-TTAZoHFAwsAbm-40" value="" style="group" parent="D_zrvM-TTAZoHFAwsAbm-7" vertex="1" connectable="0">
          <mxGeometry y="16.761904761904763" width="93.53333333333333" height="75.42857142857143" as="geometry" />
        </mxCell>
        <mxCell id="D_zrvM-TTAZoHFAwsAbm-41" value="CategoryID" style="text;html=1;align=center;verticalAlign=middle;resizable=0;points=[];autosize=1;strokeColor=none;fillColor=none;" parent="D_zrvM-TTAZoHFAwsAbm-40" vertex="1">
          <mxGeometry x="20.333333333333332" width="80" height="30" as="geometry" />
        </mxCell>
        <mxCell id="D_zrvM-TTAZoHFAwsAbm-42" value="Name" style="text;html=1;align=center;verticalAlign=middle;resizable=0;points=[];autosize=1;strokeColor=none;fillColor=none;" parent="D_zrvM-TTAZoHFAwsAbm-40" vertex="1">
          <mxGeometry x="17.080000000000002" y="16.761904761904763" width="60" height="30" as="geometry" />
        </mxCell>
        <mxCell id="D_zrvM-TTAZoHFAwsAbm-43" value="Description" style="text;html=1;align=center;verticalAlign=middle;resizable=0;points=[];autosize=1;strokeColor=none;fillColor=none;" parent="D_zrvM-TTAZoHFAwsAbm-40" vertex="1">
          <mxGeometry x="20.333333333333332" y="33.523809523809526" width="80" height="30" as="geometry" />
        </mxCell>
        <mxCell id="D_zrvM-TTAZoHFAwsAbm-44" value="PK" style="text;html=1;align=center;verticalAlign=middle;resizable=0;points=[];autosize=1;strokeColor=none;fillColor=none;" parent="D_zrvM-TTAZoHFAwsAbm-40" vertex="1">
          <mxGeometry width="40" height="30" as="geometry" />
        </mxCell>
        <mxCell id="D_zrvM-TTAZoHFAwsAbm-8" value="Review" style="swimlane;whiteSpace=wrap;html=1;" parent="wsXtch0gVwjq-yxDfHyX-1" vertex="1">
          <mxGeometry y="314.2857142857143" width="122" height="125.71428571428572" as="geometry" />
        </mxCell>
        <mxCell id="D_zrvM-TTAZoHFAwsAbm-46" value="" style="group" parent="wsXtch0gVwjq-yxDfHyX-1" vertex="1" connectable="0">
          <mxGeometry y="331.04761904761904" width="93.53333333333333" height="96.38095238095238" as="geometry" />
        </mxCell>
        <mxCell id="D_zrvM-TTAZoHFAwsAbm-47" value="ReviewID" style="text;html=1;align=center;verticalAlign=middle;resizable=0;points=[];autosize=1;strokeColor=none;fillColor=none;" parent="D_zrvM-TTAZoHFAwsAbm-46" vertex="1">
          <mxGeometry x="24.400000000000002" width="70" height="30" as="geometry" />
        </mxCell>
        <mxCell id="D_zrvM-TTAZoHFAwsAbm-48" value="OrderID" style="text;html=1;align=center;verticalAlign=middle;resizable=0;points=[];autosize=1;strokeColor=none;fillColor=none;" parent="D_zrvM-TTAZoHFAwsAbm-46" vertex="1">
          <mxGeometry x="21.14666666666667" y="16.761904761904763" width="70" height="30" as="geometry" />
        </mxCell>
        <mxCell id="D_zrvM-TTAZoHFAwsAbm-49" value="UserID" style="text;html=1;align=center;verticalAlign=middle;resizable=0;points=[];autosize=1;strokeColor=none;fillColor=none;" parent="D_zrvM-TTAZoHFAwsAbm-46" vertex="1">
          <mxGeometry x="23.586666666666666" y="33.523809523809526" width="60" height="30" as="geometry" />
        </mxCell>
        <mxCell id="D_zrvM-TTAZoHFAwsAbm-50" value="Title" style="text;html=1;align=center;verticalAlign=middle;resizable=0;points=[];autosize=1;strokeColor=none;fillColor=none;" parent="D_zrvM-TTAZoHFAwsAbm-46" vertex="1">
          <mxGeometry x="21.96" y="50.285714285714285" width="50" height="30" as="geometry" />
        </mxCell>
        <mxCell id="D_zrvM-TTAZoHFAwsAbm-51" value="PK" style="text;html=1;align=center;verticalAlign=middle;resizable=0;points=[];autosize=1;strokeColor=none;fillColor=none;" parent="D_zrvM-TTAZoHFAwsAbm-46" vertex="1">
          <mxGeometry width="40" height="30" as="geometry" />
        </mxCell>
        <mxCell id="D_zrvM-TTAZoHFAwsAbm-52" value="FK" style="text;html=1;align=center;verticalAlign=middle;resizable=0;points=[];autosize=1;strokeColor=none;fillColor=none;" parent="D_zrvM-TTAZoHFAwsAbm-46" vertex="1">
          <mxGeometry y="16.761904761904763" width="40" height="30" as="geometry" />
        </mxCell>
        <mxCell id="D_zrvM-TTAZoHFAwsAbm-53" value="FK" style="text;html=1;align=center;verticalAlign=middle;resizable=0;points=[];autosize=1;strokeColor=none;fillColor=none;" parent="D_zrvM-TTAZoHFAwsAbm-46" vertex="1">
          <mxGeometry y="33.523809523809526" width="40" height="30" as="geometry" />
        </mxCell>
        <mxCell id="D_zrvM-TTAZoHFAwsAbm-54" value="Description" style="text;html=1;align=center;verticalAlign=middle;resizable=0;points=[];autosize=1;strokeColor=none;fillColor=none;" parent="D_zrvM-TTAZoHFAwsAbm-46" vertex="1">
          <mxGeometry x="23.18" y="67.04761904761905" width="80" height="30" as="geometry" />
        </mxCell>
        <mxCell id="wsXtch0gVwjq-yxDfHyX-12" style="edgeStyle=orthogonalEdgeStyle;rounded=0;orthogonalLoop=1;jettySize=auto;html=1;entryX=1;entryY=0.5;entryDx=0;entryDy=0;exitX=0.5;exitY=0;exitDx=0;exitDy=0;endArrow=ERone;endFill=0;startArrow=ERoneToMany;startFill=0;" edge="1" parent="1" source="wsXtch0gVwjq-yxDfHyX-2" target="D_zrvM-TTAZoHFAwsAbm-4">
          <mxGeometry relative="1" as="geometry" />
        </mxCell>
        <mxCell id="wsXtch0gVwjq-yxDfHyX-2" value="Orderdetails" style="swimlane;whiteSpace=wrap;html=1;startSize=23;" vertex="1" parent="1">
          <mxGeometry x="660" y="270.05" width="124.65666666666667" height="125.71428571428572" as="geometry" />
        </mxCell>
        <mxCell id="wsXtch0gVwjq-yxDfHyX-3" value="" style="group" vertex="1" connectable="0" parent="wsXtch0gVwjq-yxDfHyX-2">
          <mxGeometry y="16.761904761904763" width="124.65666666666667" height="92.19047619047619" as="geometry" />
        </mxCell>
        <mxCell id="wsXtch0gVwjq-yxDfHyX-4" value="PK" style="text;html=1;align=center;verticalAlign=middle;resizable=0;points=[];autosize=1;strokeColor=none;fillColor=none;" vertex="1" parent="wsXtch0gVwjq-yxDfHyX-3">
          <mxGeometry width="40" height="30" as="geometry" />
        </mxCell>
        <mxCell id="wsXtch0gVwjq-yxDfHyX-5" value="OrderDetailID&lt;span style=&quot;color: rgba(0, 0, 0, 0); font-family: monospace; font-size: 0px; text-align: start;&quot;&gt;%3CmxGraphModel%3E%3Croot%3E%3CmxCell%20id%3D%220%22%2F%3E%3CmxCell%20id%3D%221%22%20parent%3D%220%22%2F%3E%3CmxCell%20id%3D%222%22%20value%3D%22UserId%22%20style%3D%22text%3Bhtml%3D1%3Balign%3Dcenter%3BverticalAlign%3Dmiddle%3Bresizable%3D0%3Bpoints%3D%5B%5D%3Bautosize%3D1%3BstrokeColor%3Dnone%3BfillColor%3Dnone%3B%22%20vertex%3D%221%22%20parent%3D%221%22%3E%3CmxGeometry%20x%3D%2260%22%20y%3D%22130%22%20width%3D%2260%22%20height%3D%2230%22%20as%3D%22geometry%22%2F%3E%3C%2FmxCell%3E%3C%2Froot%3E%3C%2FmxGraphModelDD%II3E&lt;/span&gt;" style="text;html=1;align=center;verticalAlign=middle;resizable=0;points=[];autosize=1;strokeColor=none;fillColor=none;" vertex="1" parent="wsXtch0gVwjq-yxDfHyX-3">
          <mxGeometry x="24.656666666666666" width="100" height="30" as="geometry" />
        </mxCell>
        <mxCell id="wsXtch0gVwjq-yxDfHyX-6" value="OrderID" style="text;html=1;align=center;verticalAlign=middle;resizable=0;points=[];autosize=1;strokeColor=none;fillColor=none;" vertex="1" parent="wsXtch0gVwjq-yxDfHyX-3">
          <mxGeometry x="25.653333333333332" y="16.761904761904763" width="70" height="30" as="geometry" />
        </mxCell>
        <mxCell id="wsXtch0gVwjq-yxDfHyX-7" value="ListingID" style="text;html=1;align=center;verticalAlign=middle;resizable=0;points=[];autosize=1;strokeColor=none;fillColor=none;" vertex="1" parent="wsXtch0gVwjq-yxDfHyX-3">
          <mxGeometry x="27.653333333333332" y="33.523809523809526" width="70" height="30" as="geometry" />
        </mxCell>
        <mxCell id="wsXtch0gVwjq-yxDfHyX-8" value="Quantity" style="text;html=1;align=center;verticalAlign=middle;resizable=0;points=[];autosize=1;strokeColor=none;fillColor=none;" vertex="1" parent="wsXtch0gVwjq-yxDfHyX-3">
          <mxGeometry x="26.653333333333336" y="52.66571428571429" width="70" height="30" as="geometry" />
        </mxCell>
        <mxCell id="wsXtch0gVwjq-yxDfHyX-10" value="FK" style="text;html=1;align=center;verticalAlign=middle;resizable=0;points=[];autosize=1;strokeColor=none;fillColor=none;" vertex="1" parent="wsXtch0gVwjq-yxDfHyX-3">
          <mxGeometry y="16.761904761904763" width="40" height="30" as="geometry" />
        </mxCell>
        <mxCell id="wsXtch0gVwjq-yxDfHyX-11" value="FK" style="text;html=1;align=center;verticalAlign=middle;resizable=0;points=[];autosize=1;strokeColor=none;fillColor=none;" vertex="1" parent="wsXtch0gVwjq-yxDfHyX-3">
          <mxGeometry y="33.523809523809526" width="40" height="30" as="geometry" />
        </mxCell>
      </root>
    </mxGraphModel>
  </diagram>
</mxfile>
